<?xml version="1.0" encoding="UTF-8" standalone="no"?>
<svg
   xmlns:dc="http://purl.org/dc/elements/1.1/"
   xmlns:cc="http://creativecommons.org/ns#"
   xmlns:rdf="http://www.w3.org/1999/02/22-rdf-syntax-ns#"
   xmlns:svg="http://www.w3.org/2000/svg"
   xmlns="http://www.w3.org/2000/svg"
   xmlns:sodipodi="http://sodipodi.sourceforge.net/DTD/sodipodi-0.dtd"
   xmlns:inkscape="http://www.inkscape.org/namespaces/inkscape"
   width="210mm"
   height="110mm"
   viewBox="0 0 210 110"
   version="1.1"
   id="svg8"
   inkscape:version="1.0 (4035a4fb49, 2020-05-01)"
   sodipodi:docname="dyenamic.svg"
   inkscape:export-filename="C:\Users\Rafael\OneDrive - ufpr.br\Document\SIte\Miscelaneous\dyenamic.png"
   inkscape:export-xdpi="800"
   inkscape:export-ydpi="800">
  <defs
     id="defs2">
    <inkscape:path-effect
       effect="bspline"
       id="path-effect9819"
       is_visible="true"
       weight="33.333333"
       steps="2"
       helper_size="0"
       apply_no_weight="true"
       apply_with_weight="true"
       only_selected="false"
       lpeversion="0" />
    <inkscape:path-effect
       effect="bspline"
       id="path-effect9805"
       is_visible="true"
       weight="33.333333"
       steps="2"
       helper_size="0"
       apply_no_weight="true"
       apply_with_weight="true"
       only_selected="false"
       lpeversion="0" />
    <inkscape:path-effect
       effect="bspline"
       id="path-effect9768"
       is_visible="true"
       weight="33.333333"
       steps="2"
       helper_size="0"
       apply_no_weight="true"
       apply_with_weight="true"
       only_selected="false"
       lpeversion="0" />
    <inkscape:path-effect
       effect="bspline"
       id="path-effect845"
       is_visible="true"
       weight="33.333333"
       steps="2"
       helper_size="0"
       apply_no_weight="true"
       apply_with_weight="true"
       only_selected="false"
       lpeversion="0" />
    <inkscape:path-effect
       effect="bspline"
       id="path-effect841"
       is_visible="true"
       weight="33.333333"
       steps="2"
       helper_size="0"
       apply_no_weight="true"
       apply_with_weight="true"
       only_selected="false"
       lpeversion="0" />
    <inkscape:path-effect
       effect="bspline"
       id="path-effect837"
       is_visible="true"
       weight="33.333333"
       steps="2"
       helper_size="0"
       apply_no_weight="true"
       apply_with_weight="true"
       only_selected="false"
       lpeversion="0" />
    <inkscape:path-effect
       effect="bspline"
       id="path-effect833"
       is_visible="true"
       weight="33.333333"
       steps="2"
       helper_size="0"
       apply_no_weight="true"
       apply_with_weight="true"
       only_selected="false"
       lpeversion="0" />
    <inkscape:path-effect
       effect="bspline"
       id="path-effect829"
       is_visible="true"
       weight="33.333333"
       steps="2"
       helper_size="0"
       apply_no_weight="true"
       apply_with_weight="true"
       only_selected="false"
       lpeversion="0" />
    <inkscape:path-effect
       effect="bspline"
       id="path-effect5170-29-5"
       is_visible="true"
       weight="33.333333"
       steps="2"
       helper_size="0"
       apply_no_weight="true"
       apply_with_weight="true"
       only_selected="false"
       lpeversion="0" />
    <inkscape:path-effect
       effect="bspline"
       id="path-effect5170-88-5"
       is_visible="true"
       weight="33.333333"
       steps="2"
       helper_size="0"
       apply_no_weight="true"
       apply_with_weight="true"
       only_selected="false"
       lpeversion="0" />
    <inkscape:path-effect
       effect="bspline"
       id="path-effect5170-8-2"
       is_visible="true"
       weight="33.333333"
       steps="2"
       helper_size="0"
       apply_no_weight="true"
       apply_with_weight="true"
       only_selected="false"
       lpeversion="0" />
    <inkscape:path-effect
       effect="bspline"
       id="path-effect5170-2-7"
       is_visible="true"
       weight="33.333333"
       steps="2"
       helper_size="0"
       apply_no_weight="true"
       apply_with_weight="true"
       only_selected="false"
       lpeversion="0" />
    <inkscape:path-effect
       effect="bspline"
       id="path-effect5170-72-3"
       is_visible="true"
       weight="33.333333"
       steps="2"
       helper_size="0"
       apply_no_weight="true"
       apply_with_weight="true"
       only_selected="false"
       lpeversion="0" />
    <inkscape:path-effect
       effect="bspline"
       id="path-effect5170-7-0"
       is_visible="true"
       weight="33.333333"
       steps="2"
       helper_size="0"
       apply_no_weight="true"
       apply_with_weight="true"
       only_selected="false"
       lpeversion="0" />
    <inkscape:path-effect
       effect="bspline"
       id="path-effect5170-0-5"
       is_visible="true"
       weight="33.333333"
       steps="2"
       helper_size="0"
       apply_no_weight="true"
       apply_with_weight="true"
       only_selected="false"
       lpeversion="0" />
    <inkscape:path-effect
       effect="bspline"
       id="path-effect5170-4-6"
       is_visible="true"
       weight="33.333333"
       steps="2"
       helper_size="0"
       apply_no_weight="true"
       apply_with_weight="true"
       only_selected="false"
       lpeversion="0" />
    <inkscape:path-effect
       effect="bspline"
       id="path-effect5170-26"
       is_visible="true"
       weight="33.333333"
       steps="2"
       helper_size="0"
       apply_no_weight="true"
       apply_with_weight="true"
       only_selected="false"
       lpeversion="0" />
    <inkscape:path-effect
       effect="bspline"
       id="path-effect5170-29"
       is_visible="true"
       weight="33.333333"
       steps="2"
       helper_size="0"
       apply_no_weight="true"
       apply_with_weight="true"
       only_selected="false"
       lpeversion="0" />
    <inkscape:path-effect
       effect="bspline"
       id="path-effect5170-88"
       is_visible="true"
       weight="33.333333"
       steps="2"
       helper_size="0"
       apply_no_weight="true"
       apply_with_weight="true"
       only_selected="false"
       lpeversion="0" />
    <inkscape:path-effect
       effect="bspline"
       id="path-effect5170-8"
       is_visible="true"
       weight="33.333333"
       steps="2"
       helper_size="0"
       apply_no_weight="true"
       apply_with_weight="true"
       only_selected="false"
       lpeversion="0" />
    <inkscape:path-effect
       effect="bspline"
       id="path-effect5170-2"
       is_visible="true"
       weight="33.333333"
       steps="2"
       helper_size="0"
       apply_no_weight="true"
       apply_with_weight="true"
       only_selected="false"
       lpeversion="0" />
    <inkscape:path-effect
       effect="bspline"
       id="path-effect5170-72"
       is_visible="true"
       weight="33.333333"
       steps="2"
       helper_size="0"
       apply_no_weight="true"
       apply_with_weight="true"
       only_selected="false"
       lpeversion="0" />
    <inkscape:path-effect
       effect="bspline"
       id="path-effect5170-7"
       is_visible="true"
       weight="33.333333"
       steps="2"
       helper_size="0"
       apply_no_weight="true"
       apply_with_weight="true"
       only_selected="false"
       lpeversion="0" />
    <inkscape:path-effect
       effect="bspline"
       id="path-effect5170-0"
       is_visible="true"
       weight="33.333333"
       steps="2"
       helper_size="0"
       apply_no_weight="true"
       apply_with_weight="true"
       only_selected="false"
       lpeversion="0" />
    <inkscape:path-effect
       effect="bspline"
       id="path-effect5170-4"
       is_visible="true"
       weight="33.333333"
       steps="2"
       helper_size="0"
       apply_no_weight="true"
       apply_with_weight="true"
       only_selected="false"
       lpeversion="0" />
    <inkscape:path-effect
       effect="bspline"
       id="path-effect5170"
       is_visible="true"
       weight="33.333333"
       steps="2"
       helper_size="0"
       apply_no_weight="true"
       apply_with_weight="true"
       only_selected="false"
       lpeversion="0" />
    <inkscape:path-effect
       effect="bspline"
       id="path-effect5122-7"
       is_visible="true"
       weight="33.333333"
       steps="2"
       helper_size="0"
       apply_no_weight="true"
       apply_with_weight="true"
       only_selected="false"
       lpeversion="0" />
    <inkscape:path-effect
       effect="bspline"
       id="path-effect5118-3"
       is_visible="true"
       weight="33.333333"
       steps="2"
       helper_size="0"
       apply_no_weight="true"
       apply_with_weight="true"
       only_selected="false"
       lpeversion="0" />
    <inkscape:path-effect
       effect="bspline"
       id="path-effect5114-5"
       is_visible="true"
       weight="33.333333"
       steps="2"
       helper_size="0"
       apply_no_weight="true"
       apply_with_weight="true"
       only_selected="false"
       lpeversion="0" />
    <inkscape:path-effect
       effect="bspline"
       id="path-effect5110-8"
       is_visible="true"
       weight="33.333333"
       steps="2"
       helper_size="0"
       apply_no_weight="true"
       apply_with_weight="true"
       only_selected="false"
       lpeversion="0" />
    <inkscape:path-effect
       effect="bspline"
       id="path-effect5122"
       is_visible="true"
       weight="33.333333"
       steps="2"
       helper_size="0"
       apply_no_weight="true"
       apply_with_weight="true"
       only_selected="false"
       lpeversion="0" />
    <inkscape:path-effect
       effect="bspline"
       id="path-effect5118"
       is_visible="true"
       weight="33.333333"
       steps="2"
       helper_size="0"
       apply_no_weight="true"
       apply_with_weight="true"
       only_selected="false"
       lpeversion="0" />
    <inkscape:path-effect
       effect="bspline"
       id="path-effect5114"
       is_visible="true"
       weight="33.333333"
       steps="2"
       helper_size="0"
       apply_no_weight="true"
       apply_with_weight="true"
       only_selected="false"
       lpeversion="0" />
    <inkscape:path-effect
       effect="bspline"
       id="path-effect5110"
       is_visible="true"
       weight="33.333333"
       steps="2"
       helper_size="0"
       apply_no_weight="true"
       apply_with_weight="true"
       only_selected="false"
       lpeversion="0" />
    <inkscape:path-effect
       effect="bspline"
       id="path-effect5082-4"
       is_visible="true"
       weight="33.333333"
       steps="2"
       helper_size="0"
       apply_no_weight="true"
       apply_with_weight="true"
       only_selected="false"
       lpeversion="0" />
    <inkscape:path-effect
       effect="bspline"
       id="path-effect5082"
       is_visible="true"
       weight="33.333333"
       steps="2"
       helper_size="0"
       apply_no_weight="true"
       apply_with_weight="true"
       only_selected="false"
       lpeversion="0" />
    <inkscape:path-effect
       effect="bspline"
       id="path-effect4749"
       is_visible="true"
       weight="33.333333"
       steps="2"
       helper_size="0"
       apply_no_weight="true"
       apply_with_weight="true"
       only_selected="false"
       lpeversion="0" />
  </defs>
  <sodipodi:namedview
     id="base"
     pagecolor="#ffffff"
     bordercolor="#666666"
     borderopacity="1.0"
     inkscape:pageopacity="0.0"
     inkscape:pageshadow="2"
     inkscape:zoom="0.7"
     inkscape:cx="-104.49885"
     inkscape:cy="639.09449"
     inkscape:document-units="mm"
     inkscape:current-layer="layer1"
     showgrid="false"
     inkscape:window-width="2880"
     inkscape:window-height="1514"
     inkscape:window-x="2869"
     inkscape:window-y="-11"
     inkscape:window-maximized="1"
     inkscape:document-rotation="0" />
  <metadata
     id="metadata5">
    <rdf:RDF>
      <cc:Work
         rdf:about="">
        <dc:format>image/svg+xml</dc:format>
        <dc:type
           rdf:resource="http://purl.org/dc/dcmitype/StillImage" />
        <dc:title />
      </cc:Work>
    </rdf:RDF>
  </metadata>
  <g
     inkscape:label="Layer 1"
     inkscape:groupmode="layer"
     id="layer1">
    <flowRoot
       xml:space="preserve"
       id="flowRoot9755"
       style="font-style:normal;font-variant:normal;font-weight:normal;font-stretch:normal;font-size:20px;line-height:1.25;font-family:sans-serif;-inkscape-font-specification:'sans-serif, Normal';font-variant-ligatures:normal;font-variant-caps:normal;font-variant-numeric:normal;font-feature-settings:normal;text-align:start;letter-spacing:0px;word-spacing:0px;writing-mode:lr-tb;text-anchor:start;fill:#000000;fill-opacity:1;stroke:none"><flowRegion
         id="flowRegion9757"><rect
           id="rect9759"
           width="299.00516"
           height="191.92899"
           x="2116.2695"
           y="553.80377" /></flowRegion><flowPara
         id="flowPara9761" /></flowRoot>
    <flowRoot
       xml:space="preserve"
       id="flowRoot9776"
       style="font-style:normal;font-variant:normal;font-weight:normal;font-stretch:normal;font-size:20px;line-height:1.25;font-family:sans-serif;-inkscape-font-specification:'sans-serif, Normal';font-variant-ligatures:normal;font-variant-caps:normal;font-variant-numeric:normal;font-feature-settings:normal;text-align:start;letter-spacing:0px;word-spacing:0px;writing-mode:lr-tb;text-anchor:start;fill:#000000;fill-opacity:1;stroke:none"><flowRegion
         id="flowRegion9778"><rect
           id="rect9780"
           width="1763.7263"
           height="1127.3302"
           x="1939.4929"
           y="1080.0933" /></flowRegion><flowPara
         id="flowPara9782" /></flowRoot>
    <flowRoot
       xml:space="preserve"
       id="flowRoot9784"
       style="font-style:normal;font-variant:normal;font-weight:normal;font-stretch:normal;font-size:20px;line-height:1.25;font-family:sans-serif;-inkscape-font-specification:'sans-serif, Normal';font-variant-ligatures:normal;font-variant-caps:normal;font-variant-numeric:normal;font-feature-settings:normal;text-align:start;letter-spacing:0px;word-spacing:0px;writing-mode:lr-tb;text-anchor:start;fill:#000000;fill-opacity:1;stroke:none"><flowRegion
         id="flowRegion9786"><rect
           id="rect9788"
           width="5577.1431"
           height="3297.1428"
           x="-857.14288"
           y="-894.62317" /></flowRegion><flowPara
         id="flowPara9790" /></flowRoot>
    <path
       id="path956"
       d="M 157.16406 30.552734 C 146.88172 30.695723 135.69397 32.346984 127.23438 35.777344 C 115.95437 40.351376 109.6495 48.139072 109.8457 55.652344 C 109.94391 59.413234 111.73872 62.681233 114.05859 65.105469 C 116.37847 67.529704 119.21941 69.208207 122.08789 69.738281 C 124.95563 70.26822 127.58862 69.399823 129.66406 68.060547 C 131.73951 66.721271 133.41942 64.95682 135.00781 63.324219 L 131.59375 60 C 130.00536 61.632601 128.49818 63.141548 127.08008 64.056641 C 125.66198 64.971734 124.49369 65.337419 122.95312 65.052734 C 121.4133 64.768185 119.18742 63.571839 117.50195 61.810547 C 115.81648 60.049255 114.66927 57.821028 114.60938 55.527344 C 114.48936 50.931466 118.93759 44.283954 129.02539 40.193359 C 139.11373 36.102546 154.97218 34.607373 166.58398 35.648438 C 178.19579 36.689501 185.47028 39.991615 192.67969 46.685547 C 196.2844 50.032526 199.74649 54.197922 201.72461 58.412109 C 203.70272 62.626297 204.23126 66.691327 202.4375 70.560547 C 200.64376 74.429724 196.14873 78.535129 188.38281 82.308594 C 180.61689 86.082058 169.68574 89.513542 155.44336 92.345703 C 126.95859 98.010028 85.136754 101.31157 43.296875 104.59961 L 43.669922 109.34961 C 85.509801 106.06157 127.36368 102.78817 156.37305 97.019531 C 170.87774 94.135209 182.14478 90.636474 190.46484 86.59375 C 198.78491 82.551026 204.26272 77.954913 206.76172 72.564453 C 209.2607 67.174036 208.40241 61.42161 206.03906 56.386719 C 203.67571 51.351827 199.8433 46.834406 195.92188 43.193359 C 188.07899 35.91124 179.37705 32.011141 167.00977 30.902344 C 163.91795 30.625145 160.59151 30.505072 157.16406 30.552734 z "
       style="color:#000000;font-style:normal;font-variant:normal;font-weight:normal;font-stretch:normal;font-size:medium;line-height:normal;font-family:sans-serif;font-variant-ligatures:normal;font-variant-position:normal;font-variant-caps:normal;font-variant-numeric:normal;font-variant-alternates:normal;font-variant-east-asian:normal;font-feature-settings:normal;font-variation-settings:normal;text-indent:0;text-align:start;text-decoration:none;text-decoration-line:none;text-decoration-style:solid;text-decoration-color:#000000;letter-spacing:normal;word-spacing:normal;text-transform:none;writing-mode:lr-tb;direction:ltr;text-orientation:mixed;dominant-baseline:auto;baseline-shift:baseline;text-anchor:start;white-space:normal;shape-padding:0;shape-margin:0;inline-size:0;clip-rule:nonzero;display:inline;overflow:visible;visibility:visible;isolation:auto;mix-blend-mode:normal;color-interpolation:sRGB;color-interpolation-filters:linearRGB;solid-color:#000000;solid-opacity:1;vector-effect:none;fill:#6785b8;fill-opacity:1;fill-rule:nonzero;stroke:none;stroke-width:4.765;stroke-linecap:butt;stroke-linejoin:miter;stroke-miterlimit:4;stroke-dasharray:none;stroke-dashoffset:0;stroke-opacity:1;color-rendering:auto;image-rendering:auto;shape-rendering:auto;text-rendering:auto;enable-background:accumulate;stop-color:#000000;stop-opacity:1;opacity:1" />
    <g
       style="opacity:1"
       id="g958">
      <path
         id="path960"
         d="m 2.2167786,85.445964 c 16.0140024,0.345089 32.0255524,0.690125 44.3567574,0.381942 12.331206,-0.308184 20.982014,-1.269564 27.501435,-3.057222 6.519422,-1.787658 10.90589,-4.400842 15.292952,-7.01438"
         style="color:#000000;font-style:normal;font-variant:normal;font-weight:normal;font-stretch:normal;font-size:medium;line-height:normal;font-family:sans-serif;font-variant-ligatures:normal;font-variant-position:normal;font-variant-caps:normal;font-variant-numeric:normal;font-variant-alternates:normal;font-variant-east-asian:normal;font-feature-settings:normal;font-variation-settings:normal;text-indent:0;text-align:start;text-decoration:none;text-decoration-line:none;text-decoration-style:solid;text-decoration-color:#000000;letter-spacing:normal;word-spacing:normal;text-transform:none;writing-mode:lr-tb;direction:ltr;text-orientation:mixed;dominant-baseline:auto;baseline-shift:baseline;text-anchor:start;white-space:normal;shape-padding:0;shape-margin:0;inline-size:0;clip-rule:nonzero;display:inline;overflow:visible;visibility:visible;isolation:auto;mix-blend-mode:normal;color-interpolation:sRGB;color-interpolation-filters:linearRGB;solid-color:#000000;solid-opacity:1;vector-effect:none;fill:#000000;fill-opacity:0;fill-rule:nonzero;stroke:none;stroke-width:4.365;stroke-linecap:butt;stroke-linejoin:miter;stroke-miterlimit:4;stroke-dasharray:none;stroke-dashoffset:0;stroke-opacity:1.0;color-rendering:auto;image-rendering:auto;shape-rendering:auto;text-rendering:auto;enable-background:accumulate;stop-color:#000000;stop-opacity:1;" />
      <path
         id="path962"
         d="M 88.25 73.880859 C 83.862938 76.494398 79.735132 78.955776 73.498047 80.666016 C 67.261026 82.376238 58.762893 83.340496 46.519531 83.646484 C 34.276172 83.952472 18.277675 83.608761 2.2636719 83.263672 L 2.1699219 87.628906 C 18.183925 87.973995 34.209855 88.320145 46.628906 88.009766 C 59.047955 87.699387 67.850521 86.740093 74.652344 84.875 C 81.454102 83.009924 86.097313 80.244398 90.484375 77.630859 L 88.25 73.880859 z "
         style="color:#000000;font-style:normal;font-variant:normal;font-weight:normal;font-stretch:normal;font-size:medium;line-height:normal;font-family:sans-serif;font-variant-ligatures:normal;font-variant-position:normal;font-variant-caps:normal;font-variant-numeric:normal;font-variant-alternates:normal;font-variant-east-asian:normal;font-feature-settings:normal;font-variation-settings:normal;text-indent:0;text-align:start;text-decoration:none;text-decoration-line:none;text-decoration-style:solid;text-decoration-color:#000000;letter-spacing:normal;word-spacing:normal;text-transform:none;writing-mode:lr-tb;direction:ltr;text-orientation:mixed;dominant-baseline:auto;baseline-shift:baseline;text-anchor:start;white-space:normal;shape-padding:0;shape-margin:0;inline-size:0;clip-rule:nonzero;display:inline;overflow:visible;visibility:visible;isolation:auto;mix-blend-mode:normal;color-interpolation:sRGB;color-interpolation-filters:linearRGB;solid-color:#000000;solid-opacity:1;vector-effect:none;fill:#6785b8;fill-opacity:1;fill-rule:nonzero;stroke:none;stroke-width:4.365;stroke-linecap:butt;stroke-linejoin:miter;stroke-miterlimit:4;stroke-dasharray:none;stroke-dashoffset:0;stroke-opacity:1.0;color-rendering:auto;image-rendering:auto;shape-rendering:auto;text-rendering:auto;enable-background:accumulate;stop-color:#000000;stop-opacity:1;" />
    </g>
    <path
       id="path966"
       d="M 90.625 62.314453 C 88.086361 62.648348 85.835287 64.085968 84.580078 66.076172 C 83.324842 68.066419 83.144863 70.580648 84.365234 72.537109 C 85.655277 74.605265 88.433689 75.859825 91.105469 76.220703 C 92.425979 76.399065 93.742157 76.347177 94.898438 76.107422 C 96.054718 75.867666 97.068717 75.486414 97.789062 74.701172 C 98.509394 73.915945 98.61846 72.791473 98.324219 71.929688 C 98.029978 71.067902 97.43684 70.362603 96.705078 69.828125 C 95.241509 68.759136 93.447558 68.533011 91.818359 68.275391 L 91.470703 70.472656 C 93.099902 70.730277 94.564549 71.020208 95.392578 71.625 C 95.806616 71.927413 96.116941 72.350254 96.21875 72.648438 C 96.320559 72.946621 96.317184 73.013317 96.148438 73.197266 C 95.979705 73.3812 95.328307 73.746598 94.445312 73.929688 C 93.562318 74.112777 92.46479 74.15913 91.402344 74.015625 C 89.30821 73.73277 86.888233 72.37944 86.251953 71.359375 C 85.546002 70.227616 85.606126 68.62212 86.462891 67.263672 C 87.319682 65.905181 89.050882 64.766796 90.916016 64.521484 C 92.781201 64.276166 95.071686 64.905094 97.484375 65.613281 L 98.111328 63.478516 C 95.69864 62.770328 93.163587 61.980565 90.625 62.314453 z "
       style="color:#000000;font-style:normal;font-variant:normal;font-weight:normal;font-stretch:normal;font-size:medium;line-height:normal;font-family:sans-serif;font-variant-ligatures:normal;font-variant-position:normal;font-variant-caps:normal;font-variant-numeric:normal;font-variant-alternates:normal;font-variant-east-asian:normal;font-feature-settings:normal;font-variation-settings:normal;text-indent:0;text-align:start;text-decoration:none;text-decoration-line:none;text-decoration-style:solid;text-decoration-color:#000000;letter-spacing:normal;word-spacing:normal;text-transform:none;writing-mode:lr-tb;direction:ltr;text-orientation:mixed;dominant-baseline:auto;baseline-shift:baseline;text-anchor:start;white-space:normal;shape-padding:0;shape-margin:0;inline-size:0;clip-rule:nonzero;display:inline;overflow:visible;visibility:visible;isolation:auto;mix-blend-mode:normal;color-interpolation:sRGB;color-interpolation-filters:linearRGB;solid-color:#000000;solid-opacity:1;vector-effect:none;fill:#6785b8;fill-opacity:1;fill-rule:nonzero;stroke:none;stroke-width:2.225;stroke-linecap:butt;stroke-linejoin:miter;stroke-miterlimit:4;stroke-dasharray:none;stroke-dashoffset:0;stroke-opacity:1;color-rendering:auto;image-rendering:auto;shape-rendering:auto;text-rendering:auto;enable-background:accumulate;stop-color:#000000;stop-opacity:1;opacity:1" />
    <path
       id="path970"
       d="M 110.73047 54.726562 C 106.79597 55.453756 102.7207 56.098852 100.05859 58.320312 C 97.396469 60.541791 96.762998 63.990854 97.128906 66.691406 C 97.494816 69.391968 98.974341 71.493584 101.08789 72.71875 C 103.18943 73.936956 105.86237 74.439956 108.14648 73.394531 C 110.44123 72.344242 111.83742 70.03677 111.96484 67.859375 C 112.09227 65.681939 110.63418 63.802212 108.64844 63.505859 C 106.6439 63.206703 104.81078 64.282701 103.06836 65.142578 L 104.11328 67.263672 C 105.85571 66.403795 107.55839 65.734909 108.30078 65.845703 C 109.06196 65.959301 109.6695 66.593149 109.60352 67.720703 C 109.53753 68.848298 108.47967 70.641101 107.16211 71.244141 C 105.83391 71.852046 103.83916 71.578349 102.27539 70.671875 C 100.72363 69.772361 99.751899 68.435925 99.472656 66.375 C 99.193412 64.314066 99.720027 61.682044 101.57422 60.134766 C 103.42843 58.587469 107.22566 57.777975 111.16016 57.050781 L 110.73047 54.726562 z "
       style="color:#000000;font-style:normal;font-variant:normal;font-weight:normal;font-stretch:normal;font-size:medium;line-height:normal;font-family:sans-serif;font-variant-ligatures:normal;font-variant-position:normal;font-variant-caps:normal;font-variant-numeric:normal;font-variant-alternates:normal;font-variant-east-asian:normal;font-feature-settings:normal;font-variation-settings:normal;text-indent:0;text-align:start;text-decoration:none;text-decoration-line:none;text-decoration-style:solid;text-decoration-color:#000000;letter-spacing:normal;word-spacing:normal;text-transform:none;writing-mode:lr-tb;direction:ltr;text-orientation:mixed;dominant-baseline:auto;baseline-shift:baseline;text-anchor:start;white-space:normal;shape-padding:0;shape-margin:0;inline-size:0;clip-rule:nonzero;display:inline;overflow:visible;visibility:visible;isolation:auto;mix-blend-mode:normal;color-interpolation:sRGB;color-interpolation-filters:linearRGB;solid-color:#000000;solid-opacity:1;vector-effect:none;fill:#6785b8;fill-opacity:1;fill-rule:nonzero;stroke:none;stroke-width:2.365;stroke-linecap:butt;stroke-linejoin:miter;stroke-miterlimit:4;stroke-dasharray:none;stroke-dashoffset:0;stroke-opacity:1;color-rendering:auto;image-rendering:auto;shape-rendering:auto;text-rendering:auto;enable-background:accumulate;stop-color:#000000;stop-opacity:1;opacity:1" />
    <g
       style="font-style:italic;font-variant:normal;font-weight:normal;font-stretch:normal;font-size:19.0846px;line-height:1.25;font-family:sans-serif;-inkscape-font-specification:'sans-serif Italic';font-variant-ligatures:normal;font-variant-caps:normal;font-variant-numeric:normal;font-feature-settings:normal;text-align:start;letter-spacing:0px;word-spacing:0px;writing-mode:lr-tb;text-anchor:start;fill:#000096;fill-opacity:1;stroke:#6785b8;stroke-width:0.264583;stroke-opacity:1"
       id="text817"
       transform="rotate(-2.5200924)"
       aria-label="Dye">
      <g
         style="opacity:1"
         id="g906">
        <path
           id="path908"
           d="m 26.914925,58.409219 c 0,3.031668 -0.770342,5.901813 -2.311026,8.610435 -1.540684,2.708621 -3.6467,4.802212 -6.318047,6.280771 -1.640083,0.882166 -3.31744,1.472347 -5.032072,1.770544 -1.714632,0.298197 -3.6591241,0.447296 -5.8334764,0.447296 H -0.07189306 L 6.3393399,47.767317 h 6.4485071 c 2.012829,0 3.845498,0.142886 5.498005,0.428658 1.664933,0.273347 3.186979,0.869741 4.56614,1.789182 1.317037,0.882165 2.323451,2.037678 3.019244,3.466539 0.695793,1.416435 1.043689,3.068942 1.043689,4.957523 z m -3.895197,0.316834 c 0,-1.416435 -0.25471,-2.634073 -0.76413,-3.652912 -0.496995,-1.031264 -1.254912,-1.88858 -2.273751,-2.571948 -1.006414,-0.670943 -2.081165,-1.118239 -3.224254,-1.341886 -1.143088,-0.236073 -2.590585,-0.354109 -4.342492,-0.354109 H 9.339946 L 4.3078736,72.480384 h 3.8579222 c 1.7767561,0 3.3609272,-0.142886 4.7525132,-0.428658 1.40401,-0.298197 2.727259,-0.801404 3.969746,-1.509622 2.000404,-1.143088 3.52245,-2.789383 4.566139,-4.938886 1.043689,-2.161927 1.565534,-4.454316 1.565534,-6.877165 z"
           style="color:#000000;font-style:normal;font-variant:normal;font-weight:normal;font-stretch:normal;font-size:38.1692px;line-height:1.25;font-family:sans-serif;-inkscape-font-specification:'sans-serif Italic';font-variant-ligatures:normal;font-variant-position:normal;font-variant-caps:normal;font-variant-numeric:normal;font-variant-alternates:normal;font-variant-east-asian:normal;font-feature-settings:normal;font-variation-settings:normal;text-indent:0;text-align:start;text-decoration:none;text-decoration-line:none;text-decoration-style:solid;text-decoration-color:#000000;letter-spacing:0px;word-spacing:0px;text-transform:none;writing-mode:lr-tb;direction:ltr;text-orientation:mixed;dominant-baseline:auto;baseline-shift:baseline;text-anchor:start;white-space:normal;shape-padding:0;shape-margin:0;inline-size:0;clip-rule:nonzero;display:inline;overflow:visible;visibility:visible;isolation:auto;mix-blend-mode:normal;color-interpolation:sRGB;color-interpolation-filters:linearRGB;solid-color:#000000;solid-opacity:1;vector-effect:none;fill:#6785b8;fill-opacity:1;fill-rule:nonzero;stroke:none;stroke-width:0.264583;stroke-linecap:butt;stroke-linejoin:miter;stroke-miterlimit:4;stroke-dasharray:none;stroke-dashoffset:0;stroke-opacity:1.0;color-rendering:auto;image-rendering:auto;shape-rendering:auto;text-rendering:auto;enable-background:accumulate;stop-color:#000000;stop-opacity:1;" />
        <path
           id="path910"
           d="M 6.234375 47.634766 L -0.23828125 75.650391 L 7.4199219 75.650391 C 9.6003218 75.650391 11.553412 75.500987 13.277344 75.201172 C 15.006657 74.900422 16.696112 74.304346 18.347656 73.416016 L 18.349609 73.416016 C 21.041475 71.9261 23.166935 69.814129 24.71875 67.085938 C 26.269921 64.358878 27.046875 61.464234 27.046875 58.410156 C 27.046875 56.506044 26.695755 54.831488 25.990234 53.394531 L 25.990234 53.392578 C 25.284773 51.944503 24.260845 50.76924 22.925781 49.875 C 21.531736 48.945636 19.990424 48.342792 18.308594 48.066406 L 18.306641 48.066406 C 16.645705 47.7793 14.80549 47.634766 12.787109 47.634766 L 6.234375 47.634766 z M 6.4453125 47.900391 L 12.787109 47.900391 C 14.793678 47.900391 16.620052 48.041937 18.263672 48.326172 C 19.910967 48.596624 21.415545 49.186535 22.779297 50.095703 C 24.077845 50.965484 25.065853 52.100809 25.751953 53.509766 C 26.437487 54.905316 26.783203 56.537822 26.783203 58.410156 C 26.783203 61.419414 26.018478 64.264894 24.488281 66.955078 C 22.958729 69.64413 20.873485 71.718344 18.222656 73.185547 L 18.222656 73.183594 C 16.594035 74.059595 14.93042 74.645763 13.230469 74.941406 C 11.525137 75.237986 9.5882265 75.386719 7.4199219 75.386719 L 0.09375 75.386719 L 6.4453125 47.900391 z M 9.234375 50.673828 L 4.140625 72.613281 L 8.1660156 72.613281 C 9.9498643 72.613281 11.542859 72.469644 12.945312 72.181641 C 14.362384 71.88067 15.698953 71.371128 16.953125 70.65625 C 18.975938 69.500357 20.518096 67.831244 21.572266 65.660156 L 21.574219 65.660156 C 22.62632 63.480805 23.152344 61.168408 23.152344 58.726562 C 23.152344 57.294268 22.893434 56.054445 22.373047 55.013672 C 21.865642 53.961959 21.090014 53.085051 20.054688 52.390625 C 19.035203 51.710968 17.94487 51.256442 16.785156 51.029297 L 16.783203 51.029297 C 15.627253 50.79073 14.173084 50.673828 12.416016 50.673828 L 9.234375 50.673828 z M 9.4453125 50.9375 L 12.416016 50.9375 C 14.16198 50.9375 15.600491 51.055697 16.730469 51.289062 L 16.732422 51.289062 C 17.858225 51.509328 18.915378 51.949444 19.908203 52.611328 C 20.90974 53.283091 21.650112 54.121149 22.136719 55.130859 L 22.136719 55.132812 C 22.635172 56.129718 22.886719 57.325987 22.886719 58.726562 C 22.886719 61.130416 22.371215 63.400419 21.335938 65.544922 C 20.302729 67.672839 18.800261 69.297451 16.822266 70.427734 C 15.591463 71.129292 14.281573 71.626453 12.890625 71.921875 C 11.510313 72.205183 9.9349538 72.347656 8.1660156 72.347656 L 4.4746094 72.347656 L 9.4453125 50.9375 z "
           style="color:#000000;font-style:normal;font-variant:normal;font-weight:normal;font-stretch:normal;font-size:38.1692px;line-height:1.25;font-family:sans-serif;-inkscape-font-specification:'sans-serif Italic';font-variant-ligatures:normal;font-variant-position:normal;font-variant-caps:normal;font-variant-numeric:normal;font-variant-alternates:normal;font-variant-east-asian:normal;font-feature-settings:normal;font-variation-settings:normal;text-indent:0;text-align:start;text-decoration:none;text-decoration-line:none;text-decoration-style:solid;text-decoration-color:#000000;letter-spacing:0px;word-spacing:0px;text-transform:none;writing-mode:lr-tb;direction:ltr;text-orientation:mixed;dominant-baseline:auto;baseline-shift:baseline;text-anchor:start;white-space:normal;shape-padding:0;shape-margin:0;inline-size:0;clip-rule:nonzero;display:inline;overflow:visible;visibility:visible;isolation:auto;mix-blend-mode:normal;color-interpolation:sRGB;color-interpolation-filters:linearRGB;solid-color:#000000;solid-opacity:1;vector-effect:none;fill:#6785b8;fill-opacity:1;fill-rule:nonzero;stroke:none;stroke-width:0.264583;stroke-linecap:butt;stroke-linejoin:miter;stroke-miterlimit:4;stroke-dasharray:none;stroke-dashoffset:0;stroke-opacity:1.0;color-rendering:auto;image-rendering:auto;shape-rendering:auto;text-rendering:auto;enable-background:accumulate;stop-color:#000000;stop-opacity:1;" />
      </g>
      <g
         style="opacity:1"
         id="g912">
        <path
           id="path914"
           d="M 32.636578,83.196834 H 28.778656 L 34.83578,74.30684 31.071045,54.700395 h 3.596999 l 2.944695,15.487601 9.952321,-15.487601 h 3.820647 z"
           style="color:#000000;font-style:normal;font-variant:normal;font-weight:normal;font-stretch:normal;font-size:38.1692px;line-height:1.25;font-family:sans-serif;-inkscape-font-specification:'sans-serif Italic';font-variant-ligatures:normal;font-variant-position:normal;font-variant-caps:normal;font-variant-numeric:normal;font-variant-alternates:normal;font-variant-east-asian:normal;font-feature-settings:normal;font-variation-settings:normal;text-indent:0;text-align:start;text-decoration:none;text-decoration-line:none;text-decoration-style:solid;text-decoration-color:#000000;letter-spacing:0px;word-spacing:0px;text-transform:none;writing-mode:lr-tb;direction:ltr;text-orientation:mixed;dominant-baseline:auto;baseline-shift:baseline;text-anchor:start;white-space:normal;shape-padding:0;shape-margin:0;inline-size:0;clip-rule:nonzero;display:inline;overflow:visible;visibility:visible;isolation:auto;mix-blend-mode:normal;color-interpolation:sRGB;color-interpolation-filters:linearRGB;solid-color:#000000;solid-opacity:1;vector-effect:none;fill:#6785b8;fill-opacity:1;fill-rule:nonzero;stroke:none;stroke-width:0.264583;stroke-linecap:butt;stroke-linejoin:miter;stroke-miterlimit:4;stroke-dasharray:none;stroke-dashoffset:0;stroke-opacity:1.0;color-rendering:auto;image-rendering:auto;shape-rendering:auto;text-rendering:auto;enable-background:accumulate;stop-color:#000000;stop-opacity:1;" />
        <path
           id="path916"
           d="M 30.910156 54.568359 L 34.695312 74.277344 L 28.529297 83.330078 L 32.707031 83.330078 L 32.748047 83.269531 L 51.630859 54.568359 L 47.492188 54.568359 L 37.679688 69.839844 L 34.777344 54.568359 L 30.910156 54.568359 z M 31.230469 54.832031 L 34.558594 54.832031 L 37.544922 70.539062 L 47.636719 54.832031 L 51.140625 54.832031 L 32.564453 83.064453 L 29.029297 83.064453 L 34.976562 74.335938 L 31.230469 54.832031 z "
           style="color:#000000;font-style:normal;font-variant:normal;font-weight:normal;font-stretch:normal;font-size:38.1692px;line-height:1.25;font-family:sans-serif;-inkscape-font-specification:'sans-serif Italic';font-variant-ligatures:normal;font-variant-position:normal;font-variant-caps:normal;font-variant-numeric:normal;font-variant-alternates:normal;font-variant-east-asian:normal;font-feature-settings:normal;font-variation-settings:normal;text-indent:0;text-align:start;text-decoration:none;text-decoration-line:none;text-decoration-style:solid;text-decoration-color:#000000;letter-spacing:0px;word-spacing:0px;text-transform:none;writing-mode:lr-tb;direction:ltr;text-orientation:mixed;dominant-baseline:auto;baseline-shift:baseline;text-anchor:start;white-space:normal;shape-padding:0;shape-margin:0;inline-size:0;clip-rule:nonzero;display:inline;overflow:visible;visibility:visible;isolation:auto;mix-blend-mode:normal;color-interpolation:sRGB;color-interpolation-filters:linearRGB;solid-color:#000000;solid-opacity:1;vector-effect:none;fill:#6785b8;fill-opacity:1;fill-rule:nonzero;stroke:none;stroke-width:0.264583;stroke-linecap:butt;stroke-linejoin:miter;stroke-miterlimit:4;stroke-dasharray:none;stroke-dashoffset:0;stroke-opacity:1.0;color-rendering:auto;image-rendering:auto;shape-rendering:auto;text-rendering:auto;enable-background:accumulate;stop-color:#000000;stop-opacity:1;" />
      </g>
      <g
         style="opacity:1"
         id="g918">
        <path
           id="path920"
           d="m 68.308378,62.844897 c 0.06213,-0.360321 0.105614,-0.664731 0.130461,-0.913228 0.02485,-0.248497 0.03727,-0.521844 0.03727,-0.820041 0,-1.329461 -0.366534,-2.366938 -1.099601,-3.11243 -0.720642,-0.745492 -1.882367,-1.118238 -3.485176,-1.118238 -1.764331,0 -3.329865,0.546694 -4.6966,1.640082 -1.366736,1.093389 -2.292389,2.534674 -2.776959,4.323855 z m -7.007627,13.157938 c -2.88257,0 -5.143896,-0.677156 -6.783979,-2.031467 -1.640083,-1.354311 -2.460124,-3.336077 -2.460124,-5.9453 0,-3.814435 1.205212,-7.082176 3.615637,-9.803222 2.410425,-2.733472 5.392393,-4.100208 8.945906,-4.100208 2.360725,0 4.168544,0.590181 5.423456,1.770544 1.254912,1.167938 1.882368,2.814233 1.882368,4.938886 0,0.372746 -0.05591,0.962927 -0.167736,1.770544 -0.0994,0.807617 -0.267134,1.745694 -0.503207,2.814233 H 55.91457 c -0.07455,0.360321 -0.130461,0.71443 -0.167736,1.062327 -0.02485,0.347896 -0.03728,0.670943 -0.03728,0.96914 0,1.751907 0.53427,3.131067 1.602809,4.137481 1.068539,0.99399 2.584373,1.490985 4.547502,1.490985 1.366736,0 2.770746,-0.267135 4.212031,-0.801404 1.45371,-0.534269 2.671347,-1.136876 3.652912,-1.807819 h 0.20501 l -0.764129,3.783373 c -0.621243,0.223648 -1.180363,0.428658 -1.677358,0.615031 -0.496995,0.186373 -1.130663,0.372746 -1.901005,0.559119 -0.770342,0.186373 -1.45371,0.329259 -2.050103,0.428658 -0.596394,0.0994 -1.341886,0.149099 -2.236477,0.149099 z"
           style="color:#000000;font-style:normal;font-variant:normal;font-weight:normal;font-stretch:normal;font-size:38.1692px;line-height:1.25;font-family:sans-serif;-inkscape-font-specification:'sans-serif Italic';font-variant-ligatures:normal;font-variant-position:normal;font-variant-caps:normal;font-variant-numeric:normal;font-variant-alternates:normal;font-variant-east-asian:normal;font-feature-settings:normal;font-variation-settings:normal;text-indent:0;text-align:start;text-decoration:none;text-decoration-line:none;text-decoration-style:solid;text-decoration-color:#000000;letter-spacing:0px;word-spacing:0px;text-transform:none;writing-mode:lr-tb;direction:ltr;text-orientation:mixed;dominant-baseline:auto;baseline-shift:baseline;text-anchor:start;white-space:normal;shape-padding:0;shape-margin:0;inline-size:0;clip-rule:nonzero;display:inline;overflow:visible;visibility:visible;isolation:auto;mix-blend-mode:normal;color-interpolation:sRGB;color-interpolation-filters:linearRGB;solid-color:#000000;solid-opacity:1;vector-effect:none;fill:#6785b8;fill-opacity:1;fill-rule:nonzero;stroke:none;stroke-width:0.264583;stroke-linecap:butt;stroke-linejoin:miter;stroke-miterlimit:4;stroke-dasharray:none;stroke-dashoffset:0;stroke-opacity:1.0;color-rendering:auto;image-rendering:auto;shape-rendering:auto;text-rendering:auto;enable-background:accumulate;stop-color:#000000;stop-opacity:1;" />
        <path
           id="path922"
           d="M 64.619141 53.990234 C 61.03219 53.990234 58.005806 55.377845 55.574219 58.134766 C 53.143449 60.878779 51.923828 64.183089 51.923828 68.025391 C 51.923828 70.662332 52.759394 72.693349 54.431641 74.074219 C 56.101065 75.452759 58.397493 76.134766 61.300781 76.134766 C 62.200272 76.134766 62.951619 76.085538 63.558594 75.984375 C 64.159102 75.884291 64.846439 75.739679 65.619141 75.552734 C 66.392959 75.365521 67.030695 75.179408 67.535156 74.990234 C 68.031473 74.804116 68.590135 74.598489 69.210938 74.375 L 69.28125 74.349609 L 70.091797 70.335938 L 69.683594 70.335938 L 69.650391 70.357422 C 68.680439 71.020427 67.47132 71.618981 66.025391 72.150391 C 64.596884 72.679923 63.208873 72.945312 61.859375 72.945312 C 59.918573 72.945312 58.4413 72.454753 57.402344 71.488281 C 56.362498 70.508239 55.841797 69.173563 55.841797 67.449219 C 55.841797 67.15649 55.854544 66.83695 55.878906 66.494141 L 55.878906 66.488281 C 55.911982 66.181184 55.964754 65.866247 56.027344 65.548828 L 71.359375 65.548828 L 71.382812 65.445312 C 71.619397 64.374455 71.786609 63.43392 71.886719 62.621094 L 71.886719 62.619141 C 71.998681 61.810133 72.056641 61.217589 72.056641 60.832031 C 72.056641 58.681333 71.415057 56.992069 70.130859 55.796875 C 68.845842 54.588906 67.001171 53.990234 64.619141 53.990234 z M 64.619141 54.255859 C 66.957817 54.255859 68.726416 54.838236 69.951172 55.990234 C 71.176798 57.130917 71.791016 58.733424 71.791016 60.832031 C 71.791016 61.191548 71.736445 61.779107 71.625 62.583984 L 71.625 62.585938 C 71.529928 63.358398 71.362486 64.268263 71.140625 65.285156 L 55.806641 65.285156 L 55.785156 65.390625 C 55.709782 65.754935 55.652989 66.112468 55.615234 66.464844 L 55.615234 66.466797 L 55.615234 66.470703 C 55.59019 66.821279 55.578125 67.147346 55.578125 67.449219 C 55.578125 69.228022 56.124274 70.648959 57.220703 71.681641 L 57.222656 71.681641 L 57.222656 71.683594 C 58.320777 72.705102 59.873918 73.208984 61.859375 73.208984 C 63.243349 73.208984 64.663124 72.939397 66.117188 72.400391 C 67.560037 71.870113 68.765548 71.268016 69.751953 70.599609 L 69.769531 70.599609 L 69.048828 74.152344 C 68.458847 74.365043 67.917772 74.563551 67.441406 74.742188 C 66.951878 74.925761 66.323507 75.111343 65.556641 75.296875 C 64.788658 75.482677 64.107904 75.623943 63.515625 75.722656 C 62.929811 75.820292 62.190472 75.871094 61.300781 75.871094 C 58.438929 75.871094 56.212303 75.199223 54.601562 73.869141 C 52.993643 72.541389 52.189453 70.606895 52.189453 68.025391 C 52.189453 64.238821 53.381405 61.008626 55.771484 58.310547 C 58.16058 55.601263 61.099549 54.255859 64.619141 54.255859 z M 63.890625 56.748047 C 62.098966 56.748047 60.499747 57.307234 59.111328 58.417969 C 57.723061 59.528582 56.782012 60.997637 56.291016 62.810547 L 56.244141 62.976562 L 68.419922 62.976562 L 68.439453 62.867188 C 68.501943 62.504758 68.545009 62.198372 68.570312 61.945312 C 68.59568 61.691603 68.609375 61.413199 68.609375 61.111328 C 68.609375 59.758243 68.230555 58.681643 67.470703 57.908203 C 66.715997 57.127473 65.513944 56.748047 63.890625 56.748047 z M 63.890625 57.013672 C 65.472923 57.013672 66.594672 57.381543 67.28125 58.091797 C 67.986752 58.809257 68.34375 59.806182 68.34375 61.111328 C 68.34375 61.40585 68.330966 61.674684 68.306641 61.917969 C 68.2852 62.132398 68.243671 62.410027 68.193359 62.712891 L 56.617188 62.712891 C 57.107611 61.032481 57.978941 59.663722 59.277344 58.625 C 60.622396 57.548959 62.153621 57.013672 63.890625 57.013672 z "
           style="color:#000000;font-style:normal;font-variant:normal;font-weight:normal;font-stretch:normal;font-size:38.1692px;line-height:1.25;font-family:sans-serif;-inkscape-font-specification:'sans-serif Italic';font-variant-ligatures:normal;font-variant-position:normal;font-variant-caps:normal;font-variant-numeric:normal;font-variant-alternates:normal;font-variant-east-asian:normal;font-feature-settings:normal;font-variation-settings:normal;text-indent:0;text-align:start;text-decoration:none;text-decoration-line:none;text-decoration-style:solid;text-decoration-color:#000000;letter-spacing:0px;word-spacing:0px;text-transform:none;writing-mode:lr-tb;direction:ltr;text-orientation:mixed;dominant-baseline:auto;baseline-shift:baseline;text-anchor:start;white-space:normal;shape-padding:0;shape-margin:0;inline-size:0;clip-rule:nonzero;display:inline;overflow:visible;visibility:visible;isolation:auto;mix-blend-mode:normal;color-interpolation:sRGB;color-interpolation-filters:linearRGB;solid-color:#000000;solid-opacity:1;vector-effect:none;fill:#6785b8;fill-opacity:1;fill-rule:nonzero;stroke:none;stroke-width:0.264583;stroke-linecap:butt;stroke-linejoin:miter;stroke-miterlimit:4;stroke-dasharray:none;stroke-dashoffset:0;stroke-opacity:1.0;color-rendering:auto;image-rendering:auto;shape-rendering:auto;text-rendering:auto;enable-background:accumulate;stop-color:#000000;stop-opacity:1;" />
      </g>
    </g>
    <g
       style="font-style:italic;font-variant:normal;font-weight:normal;font-stretch:normal;font-size:19.0846px;line-height:1.25;font-family:sans-serif;-inkscape-font-specification:'sans-serif Italic';font-variant-ligatures:normal;font-variant-caps:normal;font-variant-numeric:normal;font-feature-settings:normal;text-align:start;letter-spacing:0px;word-spacing:0px;writing-mode:lr-tb;text-anchor:start;fill:#62d8ff;fill-opacity:1;stroke:#6785b8;stroke-width:0.1;stroke-miterlimit:4;stroke-dasharray:none;stroke-opacity:1"
       id="text821"
       transform="translate(1.889881,2.2678572)"
       aria-label="namic">
      <g
         style="opacity:1"
         id="g924">
        <path
           id="path926"
           d="m 89.721254,37.298778 c 0.140935,0.169562 0.314123,0.413858 0.519563,0.732887 0.212505,0.313157 0.381518,0.602734 0.507039,0.86873 l 4.605752,9.16309 -1.99235,1.655995 -4.044347,-8.034925 c -0.226452,-0.444917 -0.432993,-0.822761 -0.619623,-1.133533 -0.185437,-0.323709 -0.392666,-0.623333 -0.621687,-0.89887 -0.493275,-0.593466 -1.011598,-0.915247 -1.554968,-0.965343 -0.542178,-0.06303 -1.194781,0.222556 -1.957808,0.856767 -0.536946,0.446297 -1.007093,1.087938 -1.410442,1.924925 -0.396284,0.831114 -0.731459,1.707004 -1.005526,2.62767 l 5.300936,10.538442 -1.99235,1.655994 -7.104892,-14.110115 1.99235,-1.655995 0.784921,1.569549 c 0.315539,-1.158219 0.684387,-2.151692 1.106546,-2.980421 0.429224,-0.834601 0.993557,-1.542582 1.692999,-2.123941 1.031501,-0.857359 2.050662,-1.26246 3.057485,-1.215303 1.008015,0.03422 1.920149,0.542352 2.736402,1.524397 z"
           style="color:#000000;font-style:normal;font-variant:normal;font-weight:normal;font-stretch:normal;font-size:28.2222px;line-height:1.25;font-family:sans-serif;-inkscape-font-specification:'sans-serif Italic';font-variant-ligatures:normal;font-variant-position:normal;font-variant-caps:normal;font-variant-numeric:normal;font-variant-alternates:normal;font-variant-east-asian:normal;font-feature-settings:normal;font-variation-settings:normal;text-indent:0;text-align:start;text-decoration:none;text-decoration-line:none;text-decoration-style:solid;text-decoration-color:#000000;letter-spacing:0px;word-spacing:0px;text-transform:none;writing-mode:lr-tb;direction:ltr;text-orientation:mixed;dominant-baseline:auto;baseline-shift:baseline;text-anchor:start;white-space:normal;shape-padding:0;shape-margin:0;inline-size:0;clip-rule:nonzero;display:inline;overflow:visible;visibility:visible;isolation:auto;mix-blend-mode:normal;color-interpolation:sRGB;color-interpolation-filters:linearRGB;solid-color:#000000;solid-opacity:1;vector-effect:none;fill:#6785b8;fill-opacity:1;fill-rule:nonzero;stroke:none;stroke-width:0.1;stroke-linecap:butt;stroke-linejoin:miter;stroke-miterlimit:4;stroke-dasharray:none;stroke-dashoffset:0;stroke-opacity:1.0;color-rendering:auto;image-rendering:auto;shape-rendering:auto;text-rendering:auto;enable-background:accumulate;stop-color:#000000;stop-opacity:1;" />
        <path
           id="path928"
           d="M 86.986328 35.724609 C 85.964562 35.676752 84.932528 36.088413 83.894531 36.951172 C 83.189911 37.536836 82.62157 38.249618 82.189453 39.089844 L 82.189453 39.091797 C 81.780849 39.893918 81.429523 40.864075 81.121094 41.970703 L 80.359375 40.445312 L 78.287109 42.167969 L 85.439453 56.369141 L 87.509766 54.648438 L 82.201172 44.09375 C 82.473527 43.182103 82.804748 42.313449 83.197266 41.490234 C 83.598356 40.657933 84.06584 40.022441 84.595703 39.582031 C 85.353627 38.952062 85.995227 38.675827 86.515625 38.736328 C 87.042399 38.784894 87.549161 39.096536 88.037109 39.683594 C 88.264218 39.956831 88.470231 40.254857 88.654297 40.576172 C 88.8401 40.885567 89.045416 41.262869 89.271484 41.707031 L 93.345703 49.798828 L 95.416016 48.076172 L 90.792969 38.878906 C 90.666032 38.60991 90.49488 38.318721 90.28125 38.003906 L 90.283203 38.003906 C 90.077128 37.683891 89.90292 37.43981 89.759766 37.267578 C 88.937228 36.277972 88.010095 35.759364 86.986328 35.724609 z M 86.982422 35.824219 C 87.974685 35.857904 88.873626 36.355595 89.683594 37.330078 C 89.82231 37.49697 89.994413 37.74055 90.199219 38.058594 L 90.199219 38.060547 C 90.410598 38.372046 90.579019 38.658879 90.703125 38.921875 L 95.291016 48.050781 L 93.378906 49.640625 L 89.361328 41.662109 C 89.134492 41.216438 88.927691 40.837539 88.740234 40.525391 C 88.553425 40.199287 88.344214 39.898932 88.113281 39.621094 C 87.615122 39.021752 87.08676 38.688796 86.527344 38.636719 L 86.525391 38.636719 C 85.961733 38.5718 85.298749 38.867932 84.53125 39.505859 C 83.987221 39.958043 83.513029 40.605593 83.107422 41.447266 C 82.709978 42.280812 82.374382 43.158992 82.099609 44.082031 L 82.09375 44.101562 L 87.384766 54.621094 L 85.472656 56.210938 L 78.414062 42.193359 L 80.326172 40.603516 L 81.142578 42.234375 L 81.175781 42.107422 C 81.490628 40.951741 81.859127 39.961542 82.279297 39.136719 C 82.705628 38.307742 83.264721 37.604399 83.958984 37.027344 C 84.983989 36.175384 85.990542 35.777761 86.982422 35.824219 z "
           style="color:#000000;font-style:normal;font-variant:normal;font-weight:normal;font-stretch:normal;font-size:28.2222px;line-height:1.25;font-family:sans-serif;-inkscape-font-specification:'sans-serif Italic';font-variant-ligatures:normal;font-variant-position:normal;font-variant-caps:normal;font-variant-numeric:normal;font-variant-alternates:normal;font-variant-east-asian:normal;font-feature-settings:normal;font-variation-settings:normal;text-indent:0;text-align:start;text-decoration:none;text-decoration-line:none;text-decoration-style:solid;text-decoration-color:#000000;letter-spacing:0px;word-spacing:0px;text-transform:none;writing-mode:lr-tb;direction:ltr;text-orientation:mixed;dominant-baseline:auto;baseline-shift:baseline;text-anchor:start;white-space:normal;shape-padding:0;shape-margin:0;inline-size:0;clip-rule:nonzero;display:inline;overflow:visible;visibility:visible;isolation:auto;mix-blend-mode:normal;color-interpolation:sRGB;color-interpolation-filters:linearRGB;solid-color:#000000;solid-opacity:1;vector-effect:none;fill:#6785b8;fill-opacity:1;fill-rule:nonzero;stroke:none;stroke-width:0.1;stroke-linecap:butt;stroke-linejoin:miter;stroke-miterlimit:4;stroke-dasharray:none;stroke-dashoffset:0;stroke-opacity:1.0;color-rendering:auto;image-rendering:auto;shape-rendering:auto;text-rendering:auto;enable-background:accumulate;stop-color:#000000;stop-opacity:1;" />
      </g>
      <g
         style="opacity:1"
         id="g930">
        <path
           id="path932"
           d="m 102.96994,31.483505 c -1.07557,0.920759 -1.99445,1.787886 -2.75663,2.601381 -0.760676,0.800591 -1.328038,1.542019 -1.702085,2.224284 -0.395665,0.699359 -0.582431,1.374079 -0.560297,2.024159 0.01643,0.642874 0.263975,1.266974 0.742626,1.872299 0.41027,0.518849 0.900225,0.775587 1.469866,0.770214 0.56963,-0.0054 1.22557,-0.301544 1.96782,-0.888432 0.65577,-0.518535 1.20838,-1.189743 1.65784,-2.013622 0.45097,-0.836785 0.80951,-1.694181 1.07562,-2.572188 z m 2.839,6.012059 c -0.10339,0.269151 -0.23897,0.645728 -0.40672,1.12973 -0.16623,0.471098 -0.36247,0.919069 -0.58871,1.343914 -0.23646,0.456351 -0.53895,0.918067 -0.90747,1.385147 -0.36283,0.474285 -0.8397,0.945054 -1.43061,1.412306 -0.95843,0.757859 -1.95608,1.095823 -2.992962,1.013892 -1.042577,-0.08914 -1.920003,-0.584097 -2.632277,-1.484878 -0.757859,-0.958431 -1.187075,-1.930779 -1.287648,-2.917042 -0.09907,-0.999168 0.100515,-2.035379 0.598738,-3.108634 0.489509,-1.054651 1.235933,-2.125061 2.239272,-3.21123 1.004847,-1.099073 2.225217,-2.251443 3.661097,-3.457112 -0.11631,-0.235964 -0.21704,-0.437405 -0.30217,-0.604323 -0.0908,-0.174124 -0.19894,-0.340455 -0.3243,-0.498992 -0.27351,-0.3459 -0.5642,-0.572811 -0.87207,-0.680733 -0.30786,-0.107921 -0.639184,-0.127021 -0.993972,-0.0573 -0.354786,0.06972 -0.71862,0.216875 -1.091503,0.441452 -0.371375,0.211673 -0.758838,0.477059 -1.162387,0.796158 -0.612531,0.484346 -1.231763,1.137958 -1.857695,1.960836 -0.63163,0.815671 -1.115532,1.51453 -1.451705,2.096575 l -0.108094,0.08547 -1.206943,-2.348411 c 0.325283,-0.432891 0.830136,-1.031196 1.514558,-1.794916 0.684421,-0.763719 1.390548,-1.433338 2.118379,-2.008855 1.498899,-1.185223 2.808267,-1.839938 3.928102,-1.964144 1.11983,-0.124205 2.08146,0.321732 2.88491,1.337813 0.15385,0.194569 0.30109,0.417795 0.4417,0.66968 0.14212,0.238981 0.26849,0.47285 0.3791,0.701607 l 4.5872,9.68928 -2.02135,1.598342 z"
           style="color:#000000;font-style:normal;font-variant:normal;font-weight:normal;font-stretch:normal;font-size:28.2222px;line-height:1.25;font-family:sans-serif;-inkscape-font-specification:'sans-serif Italic';font-variant-ligatures:normal;font-variant-position:normal;font-variant-caps:normal;font-variant-numeric:normal;font-variant-alternates:normal;font-variant-east-asian:normal;font-feature-settings:normal;font-variation-settings:normal;text-indent:0;text-align:start;text-decoration:none;text-decoration-line:none;text-decoration-style:solid;text-decoration-color:#000000;letter-spacing:0px;word-spacing:0px;text-transform:none;writing-mode:lr-tb;direction:ltr;text-orientation:mixed;dominant-baseline:auto;baseline-shift:baseline;text-anchor:start;white-space:normal;shape-padding:0;shape-margin:0;inline-size:0;clip-rule:nonzero;display:inline;overflow:visible;visibility:visible;isolation:auto;mix-blend-mode:normal;color-interpolation:sRGB;color-interpolation-filters:linearRGB;solid-color:#000000;solid-opacity:1;vector-effect:none;fill:#6785b8;fill-opacity:1;fill-rule:nonzero;stroke:none;stroke-width:0.1;stroke-linecap:butt;stroke-linejoin:miter;stroke-miterlimit:4;stroke-dasharray:none;stroke-dashoffset:0;stroke-opacity:1.0;color-rendering:auto;image-rendering:auto;shape-rendering:auto;text-rendering:auto;enable-background:accumulate;stop-color:#000000;stop-opacity:1;" />
        <path
           id="path934"
           d="M 100.24609 24.974609 C 99.111368 25.100467 97.795954 25.760765 96.292969 26.949219 C 95.562678 27.526681 94.854103 28.199213 94.167969 28.964844 C 93.483041 29.729129 92.977308 30.326653 92.650391 30.761719 L 92.632812 30.787109 L 93.880859 33.216797 L 94.044922 33.087891 L 94.048828 33.080078 C 94.383278 32.501017 94.867313 31.804749 95.498047 30.990234 L 95.498047 30.988281 C 96.122083 30.167896 96.737478 29.51805 97.345703 29.037109 C 97.747618 28.719303 98.1332 28.456273 98.501953 28.246094 L 98.501953 28.244141 L 98.503906 28.244141 C 98.872744 28.021999 99.230054 27.876998 99.578125 27.808594 C 99.925438 27.740341 100.24785 27.760409 100.54688 27.865234 C 100.84337 27.969169 101.12706 28.188572 101.39648 28.529297 C 101.51996 28.685457 101.62549 28.848252 101.71484 29.019531 C 101.7951 29.176895 101.89186 29.370775 102 29.589844 C 100.5776 30.786205 99.361988 31.933034 98.363281 33.025391 C 97.357219 34.114507 96.607476 35.187508 96.115234 36.248047 C 95.613983 37.327824 95.413622 38.373706 95.513672 39.382812 C 95.615365 40.380059 96.04818 41.362039 96.810547 42.326172 C 97.529685 43.235633 98.422658 43.739805 99.478516 43.830078 C 100.52867 43.913058 101.53986 43.570485 102.50586 42.806641 C 103.09932 42.337372 103.57934 41.863162 103.94531 41.384766 C 104.31552 40.915552 104.61929 40.451773 104.85742 39.992188 C 105.08488 39.56506 105.28219 39.115941 105.44922 38.642578 C 105.60004 38.207442 105.7159 37.88776 105.81445 37.626953 L 106.50586 39.099609 L 108.60742 37.4375 L 104.00195 27.712891 L 104.00195 27.710938 C 103.89102 27.481528 103.76526 27.247093 103.62305 27.007812 L 103.62109 27.005859 C 103.4798 26.753019 103.33103 26.528363 103.17578 26.332031 C 102.36471 25.306308 101.38207 24.848613 100.24609 24.974609 z M 100.25781 25.074219 C 101.36149 24.951805 102.30183 25.38614 103.09766 26.392578 C 103.2496 26.584726 103.39566 26.806749 103.53516 27.056641 C 103.67661 27.294495 103.80218 27.528514 103.91211 27.755859 L 108.48242 37.408203 L 106.54102 38.943359 L 105.80469 37.367188 L 105.76172 37.478516 C 105.65797 37.748582 105.52332 38.125079 105.35547 38.609375 C 105.19003 39.078208 104.99456 39.522751 104.76953 39.945312 C 104.53475 40.39843 104.23402 40.859273 103.86719 41.324219 C 103.50751 41.794394 103.03367 42.261328 102.44531 42.726562 C 101.49445 43.478437 100.50993 43.811351 99.486328 43.730469 C 98.457031 43.642466 97.594082 43.157725 96.888672 42.265625 C 96.135321 41.312895 95.710781 40.348327 95.611328 39.373047 C 95.513249 38.383818 95.711836 37.357747 96.207031 36.291016 C 96.693808 35.242252 97.436884 34.175018 98.4375 33.091797 C 99.440488 31.994758 100.6592 30.845176 102.09375 29.640625 L 102.12305 29.615234 L 102.10742 29.580078 C 101.99104 29.343969 101.88997 29.141812 101.80469 28.974609 C 101.71236 28.79764 101.60185 28.627711 101.47461 28.466797 C 101.197 28.115722 100.89932 27.881441 100.58008 27.769531 C 100.26339 27.658514 99.920856 27.639747 99.558594 27.710938 C 99.197093 27.781981 98.828099 27.93119 98.451172 28.158203 C 98.077565 28.37125 97.689879 28.638958 97.285156 28.958984 C 96.668318 29.446736 96.045797 30.102364 95.417969 30.927734 C 94.789597 31.739198 94.310254 32.434886 93.972656 33.017578 L 93.914062 33.064453 L 92.75 30.798828 C 93.074077 30.369428 93.567174 29.784471 94.242188 29.03125 C 94.924896 28.269442 95.630097 27.600916 96.355469 27.027344 C 97.850283 25.845351 99.152867 25.196773 100.25781 25.074219 z M 102.98633 31.402344 L 102.9375 31.445312 C 101.86083 32.367008 100.9415 33.235591 100.17773 34.050781 C 99.414992 34.853547 98.84375 35.597592 98.466797 36.285156 C 98.067665 36.990642 97.877891 37.675122 97.900391 38.335938 C 97.917534 38.990192 98.170907 39.625009 98.654297 40.236328 C 99.071602 40.764075 99.57913 41.030908 100.16406 41.025391 C 100.75066 41.01983 101.41504 40.717655 102.16211 40.126953 C 102.82362 39.603874 103.37979 38.926639 103.83203 38.097656 L 103.83398 38.097656 C 104.28647 37.258058 104.645 36.396916 104.91211 35.515625 L 104.91797 35.498047 L 102.98633 31.402344 z M 102.95312 31.566406 L 104.81055 35.501953 C 104.54592 36.371185 104.19089 37.221813 103.74414 38.050781 L 103.74609 38.050781 C 103.29942 38.869557 102.74963 39.534837 102.09961 40.048828 C 101.36219 40.631903 100.71478 40.920542 100.16211 40.925781 C 99.607761 40.93101 99.135657 40.68378 98.732422 40.173828 C 98.25894 39.57504 98.016127 38.962909 98 38.332031 C 97.978232 37.692687 98.162488 37.027217 98.554688 36.333984 C 98.925829 35.657018 99.49139 34.917556 100.25 34.119141 C 100.99726 33.321572 101.90289 32.468248 102.95312 31.566406 z "
           style="color:#000000;font-style:normal;font-variant:normal;font-weight:normal;font-stretch:normal;font-size:28.2222px;line-height:1.25;font-family:sans-serif;-inkscape-font-specification:'sans-serif Italic';font-variant-ligatures:normal;font-variant-position:normal;font-variant-caps:normal;font-variant-numeric:normal;font-variant-alternates:normal;font-variant-east-asian:normal;font-feature-settings:normal;font-variation-settings:normal;text-indent:0;text-align:start;text-decoration:none;text-decoration-line:none;text-decoration-style:solid;text-decoration-color:#000000;letter-spacing:0px;word-spacing:0px;text-transform:none;writing-mode:lr-tb;direction:ltr;text-orientation:mixed;dominant-baseline:auto;baseline-shift:baseline;text-anchor:start;white-space:normal;shape-padding:0;shape-margin:0;inline-size:0;clip-rule:nonzero;display:inline;overflow:visible;visibility:visible;isolation:auto;mix-blend-mode:normal;color-interpolation:sRGB;color-interpolation-filters:linearRGB;solid-color:#000000;solid-opacity:1;vector-effect:none;fill:#6785b8;fill-opacity:1;fill-rule:nonzero;stroke:none;stroke-width:0.1;stroke-linecap:butt;stroke-linejoin:miter;stroke-miterlimit:4;stroke-dasharray:none;stroke-dashoffset:0;stroke-opacity:1.0;color-rendering:auto;image-rendering:auto;shape-rendering:auto;text-rendering:auto;enable-background:accumulate;stop-color:#000000;stop-opacity:1;" />
      </g>
      <g
         style="opacity:1"
         id="g936">
        <path
           id="path938"
           d="m 128.03883,10.791543 c 0.14623,0.265571 0.2812,0.558316 0.40492,0.878233 0.13176,0.315486 0.24562,0.646074 0.34158,0.991763 l 2.79092,9.86843 -2.26942,1.249596 -2.45286,-8.654492 c -0.13829,-0.479697 -0.27896,-0.916126 -0.42203,-1.309287 -0.13503,-0.397591 -0.28895,-0.753315 -0.46176,-1.067172 -0.33677,-0.611618 -0.7489,-0.99821 -1.23639,-1.159776 -0.48749,-0.161567 -1.16178,-0.0053 -2.02287,0.468856 -0.63576,0.350064 -1.21025,0.897116 -1.72347,1.641156 -0.51321,0.744039 -0.98917,1.54622 -1.42787,2.406542 0.0947,0.210053 0.1928,0.454919 0.29436,0.734598 0.10961,0.275248 0.19567,0.526761 0.25816,0.754538 l 2.76067,9.727775 -2.26943,1.249597 -2.45286,-8.654492 c -0.17011,-0.556557 -0.30939,-1.009489 -0.41782,-1.358795 -0.11287,-0.357354 -0.26014,-0.701007 -0.44182,-1.030958 -0.40324,-0.732332 -0.87916,-1.120504 -1.42777,-1.164515 -0.55304,-0.05206 -1.17158,0.110236 -1.85563,0.486889 -0.48286,0.265871 -0.95337,0.687499 -1.41152,1.264883 -0.46259,0.569336 -1.00935,1.45245 -1.64028,2.649343 l 3.21364,11.350383 -2.26942,1.249596 -4.31004,-15.198632 2.26942,-1.249596 0.47414,1.689611 c 0.52152,-1.05275 1.04956,-1.941289 1.58411,-2.665617 0.54261,-0.728759 1.21227,-1.312483 2.00898,-1.751171 0.90938,-0.500725 1.75209,-0.713036 2.52812,-0.636934 0.78407,0.07167 1.45698,0.398569 2.01873,0.980698 0.63689,-1.357487 1.28478,-2.437868 1.94367,-3.241142 0.65445,-0.811323 1.39211,-1.4429747 2.21297,-1.894956 1.18299,-0.6513852 2.23399,-0.8472944 3.15299,-0.5877276 0.919,0.2595669 1.67096,0.9204921 2.25588,1.9827756 z"
           style="color:#000000;font-style:normal;font-variant:normal;font-weight:normal;font-stretch:normal;font-size:28.2222px;line-height:1.25;font-family:sans-serif;-inkscape-font-specification:'sans-serif Italic';font-variant-ligatures:normal;font-variant-position:normal;font-variant-caps:normal;font-variant-numeric:normal;font-variant-alternates:normal;font-variant-east-asian:normal;font-feature-settings:normal;font-variation-settings:normal;text-indent:0;text-align:start;text-decoration:none;text-decoration-line:none;text-decoration-style:solid;text-decoration-color:#000000;letter-spacing:0px;word-spacing:0px;text-transform:none;writing-mode:lr-tb;direction:ltr;text-orientation:mixed;dominant-baseline:auto;baseline-shift:baseline;text-anchor:start;white-space:normal;shape-padding:0;shape-margin:0;inline-size:0;clip-rule:nonzero;display:inline;overflow:visible;visibility:visible;isolation:auto;mix-blend-mode:normal;color-interpolation:sRGB;color-interpolation-filters:linearRGB;solid-color:#000000;solid-opacity:1;vector-effect:none;fill:#6785b8;fill-opacity:1;fill-rule:nonzero;stroke:none;stroke-width:0.1;stroke-linecap:butt;stroke-linejoin:miter;stroke-miterlimit:4;stroke-dasharray:none;stroke-dashoffset:0;stroke-opacity:1.0;color-rendering:auto;image-rendering:auto;shape-rendering:auto;text-rendering:auto;enable-background:accumulate;stop-color:#000000;stop-opacity:1;" />
        <path
           id="path940"
           d="M 124.29688 8.7109375 C 123.76485 8.810035 123.20059 9.0258269 122.60547 9.3535156 C 121.77845 9.8088859 121.03692 10.444023 120.37891 11.259766 C 119.72469 12.057336 119.08339 13.134885 118.45312 14.470703 C 117.89346 13.910978 117.23226 13.572636 116.45898 13.501953 C 115.67046 13.424626 114.81793 13.640392 113.90234 14.144531 C 113.09958 14.586549 112.42369 15.175849 111.87695 15.910156 C 111.36055 16.609889 110.85276 17.479755 110.34961 18.482422 L 109.89062 16.841797 L 107.53125 18.140625 L 111.86914 33.4375 L 114.22852 32.138672 L 111.00977 20.771484 C 111.63514 19.586955 112.1787 18.707796 112.63477 18.146484 C 113.08993 17.572873 113.55593 17.156249 114.03125 16.894531 C 114.70946 16.521094 115.3175 16.361284 115.85742 16.412109 L 115.85938 16.412109 C 116.38692 16.454431 116.84727 16.828424 117.24609 17.552734 C 117.42621 17.879837 117.57367 18.219998 117.68555 18.574219 C 117.79395 18.923414 117.93342 19.375127 118.10352 19.931641 L 118.10156 19.931641 L 120.57227 28.646484 L 122.93164 27.347656 L 120.16016 17.582031 L 120.16016 17.580078 C 120.09709 17.350486 120.0103 17.098247 119.90039 16.822266 C 119.80199 16.551276 119.70753 16.31594 119.61523 16.109375 C 120.05003 15.258827 120.52159 14.462618 121.0293 13.726562 C 121.53912 12.987449 122.10675 12.447149 122.73438 12.101562 C 123.58987 11.630506 124.25347 11.482513 124.71875 11.636719 C 125.19162 11.793439 125.59303 12.169119 125.92578 12.773438 C 126.09695 13.0843 126.25054 13.436797 126.38477 13.832031 C 126.52737 14.223916 126.66862 14.659891 126.80664 15.138672 L 129.27539 23.853516 L 131.63477 22.554688 L 128.83398 12.648438 C 128.73766 12.30145 128.62254 11.969337 128.49023 11.652344 L 128.49023 11.650391 C 128.36599 11.329317 128.22921 11.034874 128.08203 10.767578 C 127.4926 9.6971099 126.73037 9.0234279 125.79688 8.7597656 C 125.32941 8.6277327 124.8289 8.61184 124.29688 8.7109375 z M 124.31445 8.8105469 C 124.83342 8.7137352 125.318 8.729888 125.76953 8.8574219 C 126.67403 9.1128933 127.41373 9.7623074 127.99414 10.816406 C 128.13915 11.079766 128.27348 11.369422 128.39648 11.6875 L 128.39844 11.689453 C 128.52936 12.00293 128.6409 12.331998 128.73633 12.675781 L 131.51758 22.505859 L 129.33789 23.705078 L 126.90234 15.111328 C 126.76379 14.630715 126.62205 14.193265 126.47852 13.798828 C 126.34269 13.39888 126.18813 13.041461 126.01367 12.724609 C 125.67288 12.105692 125.25211 11.707427 124.75 11.541016 C 124.2403 11.372088 123.55419 11.536454 122.6875 12.013672 C 122.04361 12.368213 121.46388 12.920955 120.94727 13.669922 C 120.43272 14.415894 119.95526 15.219876 119.51562 16.082031 L 119.50391 16.103516 L 119.51367 16.125 C 119.60769 16.333579 119.70541 16.578653 119.80664 16.857422 L 119.80664 16.859375 C 119.91571 17.133253 120.00257 17.381882 120.06445 17.607422 L 122.81445 27.296875 L 120.63477 28.498047 L 118.19922 19.902344 C 118.02909 19.345743 117.88972 18.892385 117.78125 18.542969 C 117.66739 18.182482 117.51723 17.836706 117.33398 17.503906 C 116.92633 16.763552 116.43686 16.358201 115.86719 16.3125 C 115.30103 16.259205 114.67231 16.426772 113.98242 16.806641 C 113.49202 17.076665 113.01779 17.502828 112.55664 18.083984 C 112.09026 18.657995 111.54387 19.541776 110.91211 20.740234 L 110.90234 20.757812 L 114.10938 32.089844 L 111.92969 33.291016 L 107.64844 18.189453 L 109.82812 16.990234 L 110.32031 18.744141 L 110.37891 18.626953 C 110.89915 17.576776 111.42503 16.691757 111.95703 15.970703 C 112.49551 15.247491 113.1605 14.667781 113.95117 14.232422 C 114.85435 13.735112 115.68567 13.526685 116.44922 13.601562 C 117.22215 13.672214 117.88311 13.991904 118.4375 14.566406 L 118.48828 14.619141 L 118.51953 14.554688 C 119.15521 13.199769 119.79993 12.120969 120.45508 11.322266 C 121.10597 10.515363 121.83959 9.8880455 122.6543 9.4394531 C 123.24217 9.1157566 123.79548 8.9073585 124.31445 8.8105469 z "
           style="color:#000000;font-style:normal;font-variant:normal;font-weight:normal;font-stretch:normal;font-size:28.2222px;line-height:1.25;font-family:sans-serif;-inkscape-font-specification:'sans-serif Italic';font-variant-ligatures:normal;font-variant-position:normal;font-variant-caps:normal;font-variant-numeric:normal;font-variant-alternates:normal;font-variant-east-asian:normal;font-feature-settings:normal;font-variation-settings:normal;text-indent:0;text-align:start;text-decoration:none;text-decoration-line:none;text-decoration-style:solid;text-decoration-color:#000000;letter-spacing:0px;word-spacing:0px;text-transform:none;writing-mode:lr-tb;direction:ltr;text-orientation:mixed;dominant-baseline:auto;baseline-shift:baseline;text-anchor:start;white-space:normal;shape-padding:0;shape-margin:0;inline-size:0;clip-rule:nonzero;display:inline;overflow:visible;visibility:visible;isolation:auto;mix-blend-mode:normal;color-interpolation:sRGB;color-interpolation-filters:linearRGB;solid-color:#000000;solid-opacity:1;vector-effect:none;fill:#6785b8;fill-opacity:1;fill-rule:nonzero;stroke:none;stroke-width:0.1;stroke-linecap:butt;stroke-linejoin:miter;stroke-miterlimit:4;stroke-dasharray:none;stroke-dashoffset:0;stroke-opacity:1.0;color-rendering:auto;image-rendering:auto;shape-rendering:auto;text-rendering:auto;enable-background:accumulate;stop-color:#000000;stop-opacity:1;" />
      </g>
      <g
         style="opacity:1"
         id="g942">
        <path
           id="path944"
           d="m 139.71365,-0.3369977 -0.0578,2.7571898 -2.85977,0.5970727 0.0578,-2.75718982 z m -0.27309,5.4346274 -0.33439,15.7943983 -2.53603,0.52948 0.3344,-15.7943988 z"
           style="color:#000000;font-style:normal;font-variant:normal;font-weight:normal;font-stretch:normal;font-size:28.2222px;line-height:1.25;font-family:sans-serif;-inkscape-font-specification:'sans-serif Italic';font-variant-ligatures:normal;font-variant-position:normal;font-variant-caps:normal;font-variant-numeric:normal;font-variant-alternates:normal;font-variant-east-asian:normal;font-feature-settings:normal;font-variation-settings:normal;text-indent:0;text-align:start;text-decoration:none;text-decoration-line:none;text-decoration-style:solid;text-decoration-color:#000000;letter-spacing:0px;word-spacing:0px;text-transform:none;writing-mode:lr-tb;direction:ltr;text-orientation:mixed;dominant-baseline:auto;baseline-shift:baseline;text-anchor:start;white-space:normal;shape-padding:0;shape-margin:0;inline-size:0;clip-rule:nonzero;display:inline;overflow:visible;visibility:visible;isolation:auto;mix-blend-mode:normal;color-interpolation:sRGB;color-interpolation-filters:linearRGB;solid-color:#000000;solid-opacity:1;vector-effect:none;fill:#6785b8;fill-opacity:1;fill-rule:nonzero;stroke:none;stroke-width:0.1;stroke-linecap:butt;stroke-linejoin:miter;stroke-miterlimit:4;stroke-dasharray:none;stroke-dashoffset:0;stroke-opacity:1.0;color-rendering:auto;image-rendering:auto;shape-rendering:auto;text-rendering:auto;enable-background:accumulate;stop-color:#000000;stop-opacity:1;" />
        <path
           id="path946"
           d="M 139.76562 -0.3984375 L 139.70312 -0.38671875 L 136.80469 0.21875 L 136.74414 3.078125 L 139.70508 2.4609375 L 139.76562 -0.3984375 z M 139.66211 -0.2734375 L 139.60742 2.3789062 L 136.84766 2.9550781 L 136.90234 0.30078125 L 139.66211 -0.2734375 z M 139.49219 5.0351562 L 139.42969 5.0488281 L 136.85547 5.5859375 L 136.51953 21.482422 L 139.15625 20.933594 L 139.49219 5.0351562 z M 139.38867 5.1601562 L 139.05664 20.851562 L 136.62305 21.359375 L 136.95312 5.6679688 L 139.38867 5.1601562 z "
           style="color:#000000;font-style:normal;font-variant:normal;font-weight:normal;font-stretch:normal;font-size:28.2222px;line-height:1.25;font-family:sans-serif;-inkscape-font-specification:'sans-serif Italic';font-variant-ligatures:normal;font-variant-position:normal;font-variant-caps:normal;font-variant-numeric:normal;font-variant-alternates:normal;font-variant-east-asian:normal;font-feature-settings:normal;font-variation-settings:normal;text-indent:0;text-align:start;text-decoration:none;text-decoration-line:none;text-decoration-style:solid;text-decoration-color:#000000;letter-spacing:0px;word-spacing:0px;text-transform:none;writing-mode:lr-tb;direction:ltr;text-orientation:mixed;dominant-baseline:auto;baseline-shift:baseline;text-anchor:start;white-space:normal;shape-padding:0;shape-margin:0;inline-size:0;clip-rule:nonzero;display:inline;overflow:visible;visibility:visible;isolation:auto;mix-blend-mode:normal;color-interpolation:sRGB;color-interpolation-filters:linearRGB;solid-color:#000000;solid-opacity:1;vector-effect:none;fill:#6785b8;fill-opacity:1;fill-rule:nonzero;stroke:none;stroke-width:0.1;stroke-linecap:butt;stroke-linejoin:miter;stroke-miterlimit:4;stroke-dasharray:none;stroke-dashoffset:0;stroke-opacity:1.0;color-rendering:auto;image-rendering:auto;shape-rendering:auto;text-rendering:auto;enable-background:accumulate;stop-color:#000000;stop-opacity:1;" />
      </g>
      <g
         style="opacity:1"
         id="g948">
        <path
           id="path950"
           d="m 150.84246,19.675597 c -0.97083,0.07619 -1.84074,0.02927 -2.60973,-0.140758 -0.75983,-0.170747 -1.43849,-0.481485 -2.03599,-0.932212 -0.57774,-0.433847 -1.04154,-1.001041 -1.39141,-1.701582 -0.34986,-0.700541 -0.56253,-1.531645 -0.638,-2.493314 -0.11285,-1.437924 0.006,-2.797291 0.35727,-4.078102 0.35102,-1.2808105 0.90166,-2.4252366 1.65191,-3.4332781 0.72493,-0.978409 1.65272,-1.7792191 2.78335,-2.4024304 1.12991,-0.63237 2.37262,-1.0017446 3.72811,-1.1081238 0.89756,-0.07044 1.74987,-0.012925 2.55693,0.1725467 0.81622,0.1847527 1.53987,0.4228462 2.17094,0.7142807 l -0.3444,2.833045 -0.15112,0.01186 c -0.19611,-0.150482 -0.44018,-0.3248464 -0.73219,-0.5230931 -0.29201,-0.1982467 -0.63332,-0.378802 -1.02392,-0.5416659 -0.39133,-0.1720227 -0.82099,-0.3041758 -1.28899,-0.3964594 -0.46872,-0.1014424 -0.99616,-0.1291627 -1.58232,-0.083161 -1.77679,0.139443 -3.16951,1.0043871 -4.17816,2.5948322 -0.99949,1.5897261 -1.41478,3.4607431 -1.24587,5.6130501 0.10135,1.291384 0.50906,2.259233 1.22311,2.903546 0.72322,0.643594 1.69846,0.917233 2.92573,0.820917 0.57701,-0.04528 1.14754,-0.172992 1.7116,-0.383135 0.56407,-0.210141 1.04004,-0.427191 1.42793,-0.651151 0.43225,-0.245872 0.83136,-0.502966 1.19734,-0.771282 0.36598,-0.268316 0.63131,-0.468834 0.79598,-0.601555 l 0.15112,-0.01186 -0.3285,2.859443 c -0.76878,0.419725 -1.58695,0.797251 -2.4545,1.132576 -0.86827,0.326166 -1.76035,0.525188 -2.67622,0.597066 z"
           style="color:#000000;font-style:normal;font-variant:normal;font-weight:normal;font-stretch:normal;font-size:28.2222px;line-height:1.25;font-family:sans-serif;-inkscape-font-specification:'sans-serif Italic';font-variant-ligatures:normal;font-variant-position:normal;font-variant-caps:normal;font-variant-numeric:normal;font-variant-alternates:normal;font-variant-east-asian:normal;font-feature-settings:normal;font-variation-settings:normal;text-indent:0;text-align:start;text-decoration:none;text-decoration-line:none;text-decoration-style:solid;text-decoration-color:#000000;letter-spacing:0px;word-spacing:0px;text-transform:none;writing-mode:lr-tb;direction:ltr;text-orientation:mixed;dominant-baseline:auto;baseline-shift:baseline;text-anchor:start;white-space:normal;shape-padding:0;shape-margin:0;inline-size:0;clip-rule:nonzero;display:inline;overflow:visible;visibility:visible;isolation:auto;mix-blend-mode:normal;color-interpolation:sRGB;color-interpolation-filters:linearRGB;solid-color:#000000;solid-opacity:1;vector-effect:none;fill:#6785b8;fill-opacity:1;fill-rule:nonzero;stroke:none;stroke-width:0.1;stroke-linecap:butt;stroke-linejoin:miter;stroke-miterlimit:4;stroke-dasharray:none;stroke-dashoffset:0;stroke-opacity:1.0;color-rendering:auto;image-rendering:auto;shape-rendering:auto;text-rendering:auto;enable-background:accumulate;stop-color:#000000;stop-opacity:1;" />
        <path
           id="path952"
           d="M 152.68359 3.3359375 C 151.32148 3.4428365 150.07185 3.815224 148.93555 4.4511719 L 148.93555 4.4492188 C 147.79918 5.0755891 146.86603 5.8828682 146.13672 6.8671875 C 145.38264 7.8803694 144.8291 9.0300628 144.47656 10.316406 C 144.12391 11.603134 144.00393 12.969 144.11719 14.412109 C 144.19306 15.378842 144.40646 16.216392 144.75977 16.923828 C 145.1127 17.63052 145.58182 18.203881 146.16602 18.642578 C 146.76923 19.097614 147.45638 19.411788 148.22266 19.583984 C 148.99751 19.755311 149.87095 19.801108 150.8457 19.724609 C 151.76623 19.652366 152.66455 19.452776 153.53711 19.125 C 154.40657 18.788936 155.22724 18.411067 155.99805 17.990234 L 156.01953 17.976562 L 156.35742 15.03125 L 156.13086 15.048828 L 156.11914 15.058594 C 155.95574 15.190288 155.68991 15.39205 155.32422 15.660156 C 154.95994 15.927228 154.56354 16.182729 154.13281 16.427734 C 153.74815 16.649833 153.27307 16.866751 152.71094 17.076172 C 152.151 17.284778 151.58593 17.410171 151.01367 17.455078 C 149.79583 17.550655 148.8368 17.279918 148.125 16.646484 C 147.42241 16.012513 147.01866 15.060243 146.91797 13.777344 C 146.74973 11.633662 147.16284 9.7753563 148.15625 8.1953125 C 149.15814 6.615523 150.53413 5.7613875 152.29688 5.6230469 C 152.87914 5.5773508 153.40225 5.6048777 153.86523 5.7050781 C 154.33004 5.7967326 154.75691 5.9272631 155.14453 6.0976562 L 155.14453 6.0996094 C 155.53257 6.2614033 155.87145 6.4407173 156.16016 6.6367188 C 156.45161 6.8345849 156.69561 7.0066088 156.89062 7.15625 L 156.9043 7.1679688 L 157.11523 7.1523438 L 157.4707 4.2421875 L 157.4375 4.2265625 C 156.80263 3.9333741 156.07489 3.6951555 155.25586 3.5097656 C 154.44351 3.3230786 153.58573 3.265138 152.68359 3.3359375 z M 152.69141 3.4355469 C 153.58439 3.3654659 154.4326 3.4231662 155.23438 3.6074219 C 156.03453 3.7885371 156.73934 4.0233659 157.35938 4.3066406 L 157.02734 7.0585938 L 156.93555 7.0664062 C 156.74059 6.9173604 156.50304 6.7470664 156.2168 6.5527344 C 155.92148 6.3522425 155.57676 6.1697933 155.18359 6.0058594 L 155.18359 6.0078125 C 154.7891 5.8343988 154.35716 5.7003174 153.88672 5.6074219 L 153.88477 5.6074219 C 153.41074 5.5050451 152.8784 5.4771866 152.28906 5.5234375 C 150.49822 5.6639828 149.08767 6.5395242 148.07227 8.140625 C 147.06668 9.7400333 146.64877 11.624223 146.81836 13.785156 C 146.92038 15.085025 147.33308 16.068001 148.05859 16.722656 C 148.79323 17.376411 149.78479 17.651743 151.02148 17.554688 C 151.60324 17.509035 152.17791 17.381602 152.74609 17.169922 C 153.31209 16.959062 153.79053 16.739494 154.18164 16.513672 L 154.18164 16.515625 C 154.61541 16.268887 155.01709 16.009794 155.38477 15.740234 C 155.74488 15.47622 156.00152 15.280195 156.16797 15.146484 L 156.24414 15.140625 L 155.92773 17.912109 C 155.16683 18.326336 154.35807 18.699591 153.5 19.03125 C 152.63658 19.355403 151.74848 19.553537 150.83789 19.625 C 149.87098 19.700883 149.00726 19.65506 148.24414 19.486328 C 147.49076 19.31703 146.81835 19.008919 146.22656 18.5625 C 145.65528 18.133502 145.1964 17.573296 144.84961 16.878906 C 144.50319 16.185262 144.29187 15.360902 144.2168 14.404297 C 144.10436 12.971559 144.22286 11.618643 144.57227 10.34375 C 144.92177 9.0684724 145.47037 7.9286824 146.2168 6.9257812 C 146.93735 5.9532825 147.85947 5.1571616 148.98438 4.5371094 C 150.1079 3.9083173 151.34254 3.5414062 152.69141 3.4355469 z "
           style="color:#000000;font-style:normal;font-variant:normal;font-weight:normal;font-stretch:normal;font-size:28.2222px;line-height:1.25;font-family:sans-serif;-inkscape-font-specification:'sans-serif Italic';font-variant-ligatures:normal;font-variant-position:normal;font-variant-caps:normal;font-variant-numeric:normal;font-variant-alternates:normal;font-variant-east-asian:normal;font-feature-settings:normal;font-variation-settings:normal;text-indent:0;text-align:start;text-decoration:none;text-decoration-line:none;text-decoration-style:solid;text-decoration-color:#000000;letter-spacing:0px;word-spacing:0px;text-transform:none;writing-mode:lr-tb;direction:ltr;text-orientation:mixed;dominant-baseline:auto;baseline-shift:baseline;text-anchor:start;white-space:normal;shape-padding:0;shape-margin:0;inline-size:0;clip-rule:nonzero;display:inline;overflow:visible;visibility:visible;isolation:auto;mix-blend-mode:normal;color-interpolation:sRGB;color-interpolation-filters:linearRGB;solid-color:#000000;solid-opacity:1;vector-effect:none;fill:#6785b8;fill-opacity:1;fill-rule:nonzero;stroke:none;stroke-width:0.1;stroke-linecap:butt;stroke-linejoin:miter;stroke-miterlimit:4;stroke-dasharray:none;stroke-dashoffset:0;stroke-opacity:1.0;color-rendering:auto;image-rendering:auto;shape-rendering:auto;text-rendering:auto;enable-background:accumulate;stop-color:#000000;stop-opacity:1;" />
      </g>
    </g>
    <path
       id="path974"
       d="M 161.61719 18.865234 C 154.51393 18.990426 147.93099 19.366839 142.44922 20.25 C 131.48576 22.016308 124.42665 25.79851 115.48047 32.224609 C 106.53429 38.650709 95.698892 47.723252 84.863281 56.794922 L 84.882812 56.818359 C 95.718423 47.746689 106.55351 38.674917 115.49805 32.25 C 124.44258 25.825083 131.49462 22.046761 142.45312 20.28125 C 153.41155 18.515753 168.78357 18.773411 183.90234 19.025391 L 183.90234 18.992188 C 176.34296 18.866198 168.72045 18.740043 161.61719 18.865234 z "
       style="color:#000000;font-style:normal;font-variant:normal;font-weight:normal;font-stretch:normal;font-size:medium;line-height:normal;font-family:sans-serif;font-variant-ligatures:normal;font-variant-position:normal;font-variant-caps:normal;font-variant-numeric:normal;font-variant-alternates:normal;font-variant-east-asian:normal;font-feature-settings:normal;font-variation-settings:normal;text-indent:0;text-align:start;text-decoration:none;text-decoration-line:none;text-decoration-style:solid;text-decoration-color:#000000;letter-spacing:normal;word-spacing:normal;text-transform:none;writing-mode:lr-tb;direction:ltr;text-orientation:mixed;dominant-baseline:auto;baseline-shift:baseline;text-anchor:start;white-space:normal;shape-padding:0;shape-margin:0;inline-size:0;clip-rule:nonzero;display:inline;overflow:visible;visibility:visible;isolation:auto;mix-blend-mode:normal;color-interpolation:sRGB;color-interpolation-filters:linearRGB;solid-color:#000000;solid-opacity:1;vector-effect:none;fill:#6785b8;fill-opacity:1;fill-rule:nonzero;stroke:none;stroke-width:0;stroke-linecap:butt;stroke-linejoin:miter;stroke-miterlimit:4;stroke-dasharray:none;stroke-dashoffset:0;stroke-opacity:1;color-rendering:auto;image-rendering:auto;shape-rendering:auto;text-rendering:auto;enable-background:accumulate;stop-color:#000000;stop-opacity:1;opacity:1" />
  </g>
</svg>
